#N canvas 205 110 714 496 10;
#N canvas 528 232 450 300 sing 0;
#X obj 52 40 inlet;
#X obj 52 67 mtof;
#X obj 52 94 osc~;
#X obj 53 123 outlet~;
#X obj 142 33 inlet~;
#X text 111 56 for better singing later;
#X connect 0 0 1 0;
#X connect 1 0 2 0;
#X connect 2 0 3 0;
#X restore 429 184 pd sing;
#N canvas 480 161 450 465 getpitch 0;
#X obj 127 75 inlet~;
#X obj 126 100 fiddle~ 1024;
#X obj 126 129 outlet;
#X connect 0 0 1 0;
#X connect 1 0 2 0;
#X restore 594 151 pd getpitch;
#N canvas 131 168 450 354 timectrl 0;
#X obj 160 189 s tick;
#X obj 217 185 outlet;
#X obj 214 115 inlet;
#X text 275 186 bang ticks output;
#X text 260 113 input msec/tick;
#X obj 163 147 metro 500;
#X obj 149 125 loadbang;
#X connect 2 0 5 1;
#X connect 5 0 0 0;
#X connect 5 0 1 0;
#X connect 6 0 5 0;
#X restore 148 230 pd timectrl;
#X obj 585 117 adc~;
#N canvas 526 233 450 300 sing 0;
#X obj 52 40 inlet;
#X obj 52 67 mtof;
#X obj 52 94 osc~;
#X obj 53 123 outlet~;
#X obj 152 41 inlet~;
#X text 121 64 for better singing later;
#X text 36 22 midi input;
#X connect 0 0 1 0;
#X connect 1 0 2 0;
#X connect 2 0 3 0;
#X restore 332 184 pd sing;
#N canvas 484 225 585 446 envelope 1;
#X obj 147 281 vline~;
#X obj 217 323 *~;
#X obj 226 119 inlet;
#X text 210 101 time in ms;
#X obj 295 287 inlet~;
#X text 348 284 signal to envelope;
#X obj 218 355 outlet~;
#X obj 116 182 inlet;
#X text 100 165 bang tempo;
#X msg 272 186 addcomma;
#X msg 331 186 set 1 10;
#X msg 191 186 add 0 \$1 10;
#X msg 187 156 4;
#X obj 227 156 trigger f b b;
#X msg 147 249 1 10 \, 0 519 10 \;;
#X connect 0 0 1 0;
#X connect 1 0 6 0;
#X connect 2 0 13 0;
#X connect 4 0 1 1;
#X connect 7 0 14 0;
#X connect 9 0 14 0;
#X connect 10 0 14 0;
#X connect 11 0 14 0;
#X connect 12 0 11 0;
#X connect 13 0 11 0;
#X connect 13 1 9 0;
#X connect 13 2 10 0;
#X connect 14 0 0 0;
#X restore 198 267 pd envelope;
#X text 360 232 harm vol weights go here;
#X text 354 130 midi harmony inputs;
#X obj 189 316 dac~;
#X obj 547 180 int;
#X obj 547 151 r tick;
#X obj 547 209 s pitch;
#X text 401 253;
#X obj 254 73 s voice1;
#X obj 367 71 s voice2;
#X obj 332 147 r voice1;
#X obj 429 148 r voice2;
#X obj 228 186 r msecpbeat;
#X floatatom 255 39 5 0 0 0 - - -;
#X floatatom 369 38 5 0 0 0 - - -;
#X obj 118 75 s msecpbeat;
#X floatatom 119 39 5 0 0 0 - - -;
#X connect 0 0 5 2;
#X connect 1 0 9 1;
#X connect 2 0 5 0;
#X connect 3 0 1 0;
#X connect 3 1 1 0;
#X connect 4 0 5 2;
#X connect 9 0 11 0;
#X connect 10 0 9 0;
#X connect 15 0 4 0;
#X connect 16 0 0 0;
#X connect 17 0 2 0;
#X connect 17 0 5 1;
#X connect 18 0 13 0;
#X connect 19 0 14 0;
#X connect 21 0 20 0;
