#N canvas 334 119 714 496 10;
#X text 401 253;
#N canvas 528 232 450 300 sing 0;
#X obj 52 40 inlet;
#X obj 52 67 mtof;
#X obj 52 94 osc~;
#X obj 53 123 outlet~;
#X obj 142 33 inlet~;
#X text 111 56 for better singing later;
#X connect 0 0 1 0;
#X connect 1 0 2 0;
#X connect 2 0 3 0;
#X restore 447 189 pd sing;
#N canvas 482 160 450 465 getpitch 1;
#X obj 174 133 unpack;
#X obj 205 43 r grab_pitch;
#X obj 78 43 inlet~;
#X obj 175 191 s pitch;
#X msg 140 43 auto 0;
#X obj 139 17 loadbang;
#X obj 126 100 fiddle~ 2048;
#X connect 0 0 3 0;
#X connect 1 0 6 0;
#X connect 2 0 6 0;
#X connect 4 0 6 0;
#X connect 5 0 4 0;
#X connect 6 2 0 0;
#X restore 558 173 pd getpitch;
#N canvas 145 161 450 300 timectrl 0;
#X obj 158 145 metro;
#X obj 159 65 r on;
#X obj 119 99 r off;
#X msg 121 123 0;
#X obj 156 182 s tick;
#X obj 205 66 inlet;
#X obj 217 185 outlet;
#X obj 232 93 inlet;
#X text 250 66 maybe for a bang later;
#X text 275 186 bang ticks output;
#X text 278 91 input msec/tick;
#X connect 0 0 4 0;
#X connect 0 0 6 0;
#X connect 1 0 0 0;
#X connect 2 0 3 0;
#X connect 3 0 0 0;
#X connect 5 0 0 0;
#X connect 7 0 0 1;
#X restore 157 234 pd timectrl;
#X obj 550 123 adc~;
#N canvas 526 233 450 300 sing 0;
#X obj 52 40 inlet;
#X obj 52 67 mtof;
#X obj 52 94 osc~;
#X obj 53 123 outlet~;
#X obj 152 41 inlet~;
#X text 121 64 for better singing later;
#X text 36 22 midi input;
#X connect 0 0 1 0;
#X connect 1 0 2 0;
#X connect 2 0 3 0;
#X restore 374 189 pd sing;
#N canvas 334 239 450 300 envelope 0;
#X obj 80 104 vline~;
#X obj 150 147 *~;
#X msg 80 73 1 10 \, 0 \$1 10;
#X obj 166 40 inlet;
#X text 210 40 time in ms;
#X obj 228 111 inlet~;
#X text 278 111 signal to envelope;
#X obj 151 179 outlet~;
#X obj 13 34 inlet;
#X text 52 36 bang tempo;
#X connect 0 0 1 0;
#X connect 1 0 7 0;
#X connect 2 0 0 0;
#X connect 3 0 2 0;
#X connect 5 0 1 1;
#X connect 8 0 2 0;
#X restore 300 332 pd envelope;
#X obj 238 187 r msecptick;
#X text 402 226 harm vol weights go here;
#X obj 332 147 r voiceone;
#X obj 429 148 r voicetwo;
#X text 354 130 midi harmony inputs;
#X obj 312 426 dac~;
#X obj 310 386 *~ 0.2;
#X obj 530 307 s grab_pitch;
#X obj 531 277 bng 15 250 50 0 empty empty empty 17 7 0 10 -262144
-1 -1;
#X obj 516 389 r pitch;
#X obj 517 414 print;
#X connect 1 0 6 2;
#X connect 3 0 6 0;
#X connect 4 0 2 0;
#X connect 4 1 2 0;
#X connect 5 0 6 2;
#X connect 6 0 13 0;
#X connect 7 0 3 1;
#X connect 7 0 6 1;
#X connect 9 0 5 0;
#X connect 10 0 1 0;
#X connect 15 0 14 0;
#X connect 16 0 17 0;
