#N canvas 119 79 714 496 10;
#X text 401 253;
#N canvas 528 232 450 300 sing 0;
#X obj 52 40 inlet;
#X obj 52 67 mtof;
#X obj 52 94 osc~;
#X obj 53 123 outlet~;
#X obj 142 33 inlet~;
#X text 111 56 for better singing later;
#X connect 0 0 1 0;
#X connect 1 0 2 0;
#X connect 2 0 3 0;
#X restore 447 189 pd sing;
#N canvas 480 161 450 465 getpitch 0;
#X obj 127 75 inlet~;
#X obj 126 100 fiddle~ 1024;
#X obj 126 129 outlet;
#X connect 0 0 1 0;
#X connect 1 0 2 0;
#X restore 593 197 pd getpitch;
#N canvas 131 168 450 354 timectrl 1;
#X obj 160 189 s tick;
#X obj 217 185 outlet;
#X obj 214 115 inlet;
#X text 275 186 bang ticks output;
#X text 260 113 input msec/tick;
#X obj 163 147 metro 500;
#X obj 149 125 loadbang;
#X connect 2 0 5 1;
#X connect 5 0 0 0;
#X connect 5 0 1 0;
#X connect 6 0 5 0;
#X restore 157 234 pd timectrl;
#X obj 585 147 adc~;
#N canvas 526 233 450 300 sing 0;
#X obj 52 40 inlet;
#X obj 52 67 mtof;
#X obj 52 94 osc~;
#X obj 53 123 outlet~;
#X obj 152 41 inlet~;
#X text 121 64 for better singing later;
#X text 36 22 midi input;
#X connect 0 0 1 0;
#X connect 1 0 2 0;
#X connect 2 0 3 0;
#X restore 374 189 pd sing;
#N canvas 334 239 450 300 envelope 0;
#X obj 80 104 vline~;
#X obj 150 147 *~;
#X msg 80 73 1 10 \, 0 \$1 10;
#X obj 166 40 inlet;
#X text 210 40 time in ms;
#X obj 228 111 inlet~;
#X text 278 111 signal to envelope;
#X obj 151 179 outlet~;
#X obj 13 34 inlet;
#X text 52 36 bang tempo;
#X connect 0 0 1 0;
#X connect 1 0 7 0;
#X connect 2 0 0 0;
#X connect 3 0 2 0;
#X connect 5 0 1 1;
#X connect 8 0 2 0;
#X restore 300 332 pd envelope;
#X obj 238 187 r msecptick;
#X text 402 226 harm vol weights go here;
#X obj 332 147 r voiceone;
#X obj 429 148 r voicetwo;
#X text 354 130 midi harmony inputs;
#X obj 312 426 dac~;
#X obj 310 386 *~ 0.2;
#X obj 488 370 r pitch;
#X obj 488 400 print;
#X obj 620 255 int;
#X obj 631 223 r tick;
#X obj 620 289 s pitch;
#X connect 1 0 6 2;
#X connect 2 0 16 1;
#X connect 4 0 2 0;
#X connect 4 1 2 0;
#X connect 5 0 6 2;
#X connect 6 0 13 0;
#X connect 7 0 3 0;
#X connect 7 0 6 1;
#X connect 9 0 5 0;
#X connect 10 0 1 0;
#X connect 14 0 15 0;
#X connect 16 0 18 0;
#X connect 17 0 16 0;
